<svg xmlns="http://www.w3.org/2000/svg" width="512" height="512" viewBox="0 0 100 100">
  <defs>
    <clipPath id="r">
      <rect x="7" y="7" width="86" height="86" rx="19" ry="19"/>
    </clipPath>
    <radialGradient id="constbg" cx="40%" cy="40%" r="80%">
      <stop offset="0%" stop-color="#0e1428"/>
      <stop offset="100%" stop-color="#050810"/>
    </radialGradient>
  </defs>
  <g clip-path="url(#r)">
    <rect x="7" y="7" width="86" height="86" fill="url(#constbg)"/>
    <circle cx="20" cy="14" r="0.7" fill="white" fill-opacity="0.5"/>
    <circle cx="80" cy="20" r="0.5" fill="white" fill-opacity="0.4"/>
    <circle cx="88" cy="52" r="0.6" fill="white" fill-opacity="0.35"/>
    <circle cx="13" cy="68" r="0.5" fill="white" fill-opacity="0.4"/>
    <circle cx="62" cy="80" r="0.7" fill="white" fill-opacity="0.3"/>
    <circle cx="40" cy="83" r="0.5" fill="white" fill-opacity="0.35"/>
    <circle cx="74" cy="62" r="0.4" fill="white" fill-opacity="0.3"/>
    <circle cx="28" cy="38" r="0.5" fill="white" fill-opacity="0.25"/>
    <circle cx="38" cy="28" r="17" fill="#FF0000" fill-opacity="0.12"/>
    <circle cx="65" cy="52" r="20" fill="#FF0000" fill-opacity="0.1"/>
    <circle cx="42" cy="68" r="15" fill="#FF0000" fill-opacity="0.1"/>
    <circle cx="38" cy="28" r="10" fill="#EE0000"/>
    <circle cx="65" cy="52" r="11" fill="#FF1111"/>
    <circle cx="42" cy="68" r="9" fill="#EE0000"/>
    <ellipse cx="35" cy="25" rx="3.7" ry="2.2" fill="white" fill-opacity="0.5"  transform="rotate(-20,35,25)"/>
    <ellipse cx="62" cy="49" rx="4.3" ry="2.5" fill="white" fill-opacity="0.45" transform="rotate(-20,62,49)"/>
    <ellipse cx="39" cy="65" rx="3.1" ry="1.9" fill="white" fill-opacity="0.4"  transform="rotate(-20,39,65)"/>
  </g>
</svg>